# MagicaVoxel @ Ephtracy

# material
mtllib Hex.mtl
usemtl palette

# normals
vn -1 0 0
vn 1 0 0
vn 0 0 1
vn 0 0 -1
vn 0 -1 0
vn 0 1 0

# texcoords
vt 0.791016 0.5
vt 0.818359 0.5
vt 0.826172 0.5
vt 0.982422 0.5
vt 0.986328 0.5
vt 0.990234 0.5
vt 0.994141 0.5

# verts
v -22 0 8
v -22 0 1
v -22 5 8
v -22 5 1
v -22 10 8
v -22 10 1
v -22 15 8
v -22 15 1
v -22 20 8
v -22 20 1
v -22 22 8
v -22 22 1
v -21 0 9
v -21 0 8
v -21 0 1
v -21 0 -0
v -21 5 9
v -21 5 8
v -21 5 1
v -21 5 -0
v -21 10 9
v -21 10 8
v -21 10 1
v -21 10 -0
v -21 15 9
v -21 15 8
v -21 15 1
v -21 15 -0
v -21 20 9
v -21 20 8
v -21 20 1
v -21 20 -0
v -21 21 9
v -21 21 8
v -21 22 9
v -21 22 8
v -21 22 1
v -21 22 -0
v -20 0 10
v -20 0 9
v -20 0 -0
v -20 0 -1
v -20 5 10
v -20 5 9
v -20 5 -0
v -20 5 -1
v -20 10 10
v -20 10 9
v -20 10 -0
v -20 10 -1
v -20 15 10
v -20 15 9
v -20 15 -0
v -20 15 -1
v -20 20 10
v -20 20 9
v -20 20 -0
v -20 20 -1
v -20 21 10
v -20 21 9
v -20 22 10
v -20 22 9
v -20 22 -0
v -20 22 -1
v -19 0 11
v -19 0 10
v -19 0 -1
v -19 0 -2
v -19 5 11
v -19 5 10
v -19 5 -1
v -19 5 -2
v -19 10 11
v -19 10 10
v -19 10 -1
v -19 10 -2
v -19 15 11
v -19 15 10
v -19 15 -1
v -19 15 -2
v -19 20 11
v -19 20 10
v -19 20 -1
v -19 20 -2
v -19 21 11
v -19 21 10
v -19 22 11
v -19 22 10
v -19 22 -1
v -19 22 -2
v -18 0 12
v -18 0 11
v -18 0 -2
v -18 0 -3
v -18 5 12
v -18 5 11
v -18 5 -2
v -18 5 -3
v -18 10 12
v -18 10 11
v -18 10 -2
v -18 10 -3
v -18 15 12
v -18 15 11
v -18 15 -2
v -18 15 -3
v -18 20 12
v -18 20 11
v -18 20 -2
v -18 20 -3
v -18 21 12
v -18 21 11
v -18 22 12
v -18 22 11
v -18 22 -2
v -18 22 -3
v -17 0 13
v -17 0 12
v -17 0 -3
v -17 0 -4
v -17 5 13
v -17 5 12
v -17 5 -3
v -17 5 -4
v -17 10 13
v -17 10 12
v -17 10 -3
v -17 10 -4
v -17 15 13
v -17 15 12
v -17 15 -3
v -17 15 -4
v -17 20 13
v -17 20 12
v -17 20 -3
v -17 20 -4
v -17 21 12
v -17 22 13
v -17 22 12
v -17 22 -3
v -17 22 -4
v -10 0 13
v -10 0 12
v -10 0 -3
v -10 0 -4
v -10 5 13
v -10 5 12
v -10 5 -3
v -10 5 -4
v -10 10 13
v -10 10 12
v -10 10 -3
v -10 10 -4
v -10 15 13
v -10 15 12
v -10 15 -3
v -10 15 -4
v -10 20 13
v -10 20 12
v -10 20 -3
v -10 20 -4
v -10 22 13
v -10 22 12
v -10 22 -3
v -10 22 -4
v -9 0 12
v -9 0 11
v -9 0 -2
v -9 0 -3
v -9 5 12
v -9 5 11
v -9 5 -2
v -9 5 -3
v -9 10 12
v -9 10 11
v -9 10 -2
v -9 10 -3
v -9 15 12
v -9 15 11
v -9 15 -2
v -9 15 -3
v -9 20 12
v -9 20 11
v -9 20 -2
v -9 20 -3
v -9 22 12
v -9 22 11
v -9 22 -2
v -9 22 -3
v -8 0 11
v -8 0 10
v -8 0 -1
v -8 0 -2
v -8 5 11
v -8 5 10
v -8 5 -1
v -8 5 -2
v -8 10 11
v -8 10 10
v -8 10 -1
v -8 10 -2
v -8 15 11
v -8 15 10
v -8 15 -1
v -8 15 -2
v -8 20 11
v -8 20 10
v -8 20 -1
v -8 20 -2
v -8 22 11
v -8 22 10
v -8 22 -1
v -8 22 -2
v -7 0 10
v -7 0 9
v -7 0 -0
v -7 0 -1
v -7 5 10
v -7 5 9
v -7 5 -0
v -7 5 -1
v -7 10 10
v -7 10 9
v -7 10 -0
v -7 10 -1
v -7 15 10
v -7 15 9
v -7 15 -0
v -7 15 -1
v -7 20 10
v -7 20 9
v -7 20 -0
v -7 20 -1
v -7 22 10
v -7 22 9
v -7 22 -0
v -7 22 -1
v -6 0 9
v -6 0 8
v -6 0 1
v -6 0 -0
v -6 5 9
v -6 5 8
v -6 5 1
v -6 5 -0
v -6 10 9
v -6 10 8
v -6 10 1
v -6 10 -0
v -6 15 9
v -6 15 8
v -6 15 1
v -6 15 -0
v -6 20 9
v -6 20 8
v -6 20 1
v -6 20 -0
v -6 22 9
v -6 22 8
v -6 22 1
v -6 22 -0
v -5 0 8
v -5 0 1
v -5 5 8
v -5 5 1
v -5 10 8
v -5 10 1
v -5 15 8
v -5 15 1
v -5 20 8
v -5 20 1
v -5 22 8
v -5 22 1
v -17 0 13
v -17 5 13
v -17 10 13
v -17 15 13
v -17 20 13
v -17 22 13
v -10 0 13
v -10 5 13
v -10 10 13
v -10 15 13
v -10 20 13
v -10 22 13
v -18 0 12
v -18 5 12
v -18 10 12
v -18 15 12
v -18 20 12
v -18 21 12
v -18 22 12
v -17 0 12
v -17 5 12
v -17 10 12
v -17 15 12
v -17 20 12
v -17 21 12
v -17 22 12
v -10 0 12
v -10 5 12
v -10 10 12
v -10 15 12
v -10 20 12
v -10 22 12
v -9 0 12
v -9 5 12
v -9 10 12
v -9 15 12
v -9 20 12
v -9 22 12
v -19 0 11
v -19 5 11
v -19 10 11
v -19 15 11
v -19 20 11
v -19 21 11
v -19 22 11
v -18 0 11
v -18 5 11
v -18 10 11
v -18 15 11
v -18 20 11
v -18 21 11
v -18 22 11
v -9 0 11
v -9 5 11
v -9 10 11
v -9 15 11
v -9 20 11
v -9 22 11
v -8 0 11
v -8 5 11
v -8 10 11
v -8 15 11
v -8 20 11
v -8 22 11
v -20 0 10
v -20 5 10
v -20 10 10
v -20 15 10
v -20 20 10
v -20 21 10
v -20 22 10
v -19 0 10
v -19 5 10
v -19 10 10
v -19 15 10
v -19 20 10
v -19 21 10
v -19 22 10
v -8 0 10
v -8 5 10
v -8 10 10
v -8 15 10
v -8 20 10
v -8 22 10
v -7 0 10
v -7 5 10
v -7 10 10
v -7 15 10
v -7 20 10
v -7 22 10
v -21 0 9
v -21 5 9
v -21 10 9
v -21 15 9
v -21 20 9
v -21 21 9
v -21 22 9
v -20 0 9
v -20 5 9
v -20 10 9
v -20 15 9
v -20 20 9
v -20 21 9
v -20 22 9
v -7 0 9
v -7 5 9
v -7 10 9
v -7 15 9
v -7 20 9
v -7 22 9
v -6 0 9
v -6 5 9
v -6 10 9
v -6 15 9
v -6 20 9
v -6 22 9
v -22 0 8
v -22 5 8
v -22 10 8
v -22 15 8
v -22 20 8
v -22 22 8
v -21 0 8
v -21 5 8
v -21 10 8
v -21 15 8
v -21 20 8
v -21 21 8
v -21 22 8
v -6 0 8
v -6 5 8
v -6 10 8
v -6 15 8
v -6 20 8
v -6 22 8
v -5 0 8
v -5 5 8
v -5 10 8
v -5 15 8
v -5 20 8
v -5 22 8
v -22 0 1
v -22 5 1
v -22 10 1
v -22 15 1
v -22 20 1
v -22 22 1
v -21 0 1
v -21 5 1
v -21 10 1
v -21 15 1
v -21 20 1
v -21 22 1
v -6 0 1
v -6 5 1
v -6 10 1
v -6 15 1
v -6 20 1
v -6 22 1
v -5 0 1
v -5 5 1
v -5 10 1
v -5 15 1
v -5 20 1
v -5 22 1
v -21 0 -0
v -21 5 -0
v -21 10 -0
v -21 15 -0
v -21 20 -0
v -21 22 -0
v -20 0 -0
v -20 5 -0
v -20 10 -0
v -20 15 -0
v -20 20 -0
v -20 22 -0
v -7 0 -0
v -7 5 -0
v -7 10 -0
v -7 15 -0
v -7 20 -0
v -7 22 -0
v -6 0 -0
v -6 5 -0
v -6 10 -0
v -6 15 -0
v -6 20 -0
v -6 22 -0
v -20 0 -1
v -20 5 -1
v -20 10 -1
v -20 15 -1
v -20 20 -1
v -20 22 -1
v -19 0 -1
v -19 5 -1
v -19 10 -1
v -19 15 -1
v -19 20 -1
v -19 22 -1
v -8 0 -1
v -8 5 -1
v -8 10 -1
v -8 15 -1
v -8 20 -1
v -8 22 -1
v -7 0 -1
v -7 5 -1
v -7 10 -1
v -7 15 -1
v -7 20 -1
v -7 22 -1
v -19 0 -2
v -19 5 -2
v -19 10 -2
v -19 15 -2
v -19 20 -2
v -19 22 -2
v -18 0 -2
v -18 5 -2
v -18 10 -2
v -18 15 -2
v -18 20 -2
v -18 22 -2
v -9 0 -2
v -9 5 -2
v -9 10 -2
v -9 15 -2
v -9 20 -2
v -9 22 -2
v -8 0 -2
v -8 5 -2
v -8 10 -2
v -8 15 -2
v -8 20 -2
v -8 22 -2
v -18 0 -3
v -18 5 -3
v -18 10 -3
v -18 15 -3
v -18 20 -3
v -18 22 -3
v -17 0 -3
v -17 5 -3
v -17 10 -3
v -17 15 -3
v -17 20 -3
v -17 22 -3
v -10 0 -3
v -10 5 -3
v -10 10 -3
v -10 15 -3
v -10 20 -3
v -10 22 -3
v -9 0 -3
v -9 5 -3
v -9 10 -3
v -9 15 -3
v -9 20 -3
v -9 22 -3
v -17 0 -4
v -17 5 -4
v -17 10 -4
v -17 15 -4
v -17 20 -4
v -17 22 -4
v -10 0 -4
v -10 5 -4
v -10 10 -4
v -10 15 -4
v -10 20 -4
v -10 22 -4
v -17 0 13
v -10 0 13
v -18 0 12
v -17 0 12
v -10 0 12
v -9 0 12
v -19 0 11
v -18 0 11
v -17 0 11
v -10 0 11
v -9 0 11
v -8 0 11
v -20 0 10
v -19 0 10
v -18 0 10
v -9 0 10
v -8 0 10
v -7 0 10
v -21 0 9
v -20 0 9
v -19 0 9
v -10 0 9
v -8 0 9
v -7 0 9
v -6 0 9
v -22 0 8
v -21 0 8
v -20 0 8
v -10 0 8
v -6 0 8
v -5 0 8
v -21 0 2
v -20 0 2
v -17 0 2
v -10 0 2
v -22 0 1
v -21 0 1
v -20 0 1
v -19 0 1
v -7 0 1
v -6 0 1
v -5 0 1
v -21 0 -0
v -20 0 -0
v -18 0 -0
v -17 0 -0
v -8 0 -0
v -7 0 -0
v -6 0 -0
v -20 0 -1
v -19 0 -1
v -18 0 -1
v -9 0 -1
v -8 0 -1
v -7 0 -1
v -19 0 -2
v -18 0 -2
v -10 0 -2
v -9 0 -2
v -8 0 -2
v -18 0 -3
v -17 0 -3
v -10 0 -3
v -9 0 -3
v -17 0 -4
v -10 0 -4
v -17 22 13
v -10 22 13
v -18 22 12
v -17 22 12
v -10 22 12
v -9 22 12
v -19 22 11
v -18 22 11
v -9 22 11
v -8 22 11
v -20 22 10
v -19 22 10
v -8 22 10
v -7 22 10
v -21 22 9
v -20 22 9
v -7 22 9
v -6 22 9
v -22 22 8
v -21 22 8
v -6 22 8
v -5 22 8
v -22 22 1
v -21 22 1
v -6 22 1
v -5 22 1
v -21 22 -0
v -20 22 -0
v -7 22 -0
v -6 22 -0
v -20 22 -1
v -19 22 -1
v -8 22 -1
v -7 22 -1
v -19 22 -2
v -18 22 -2
v -9 22 -2
v -8 22 -2
v -18 22 -3
v -17 22 -3
v -10 22 -3
v -9 22 -3
v -17 22 -4
v -10 22 -4

# faces
f 3/7/1 2/7/1 1/7/1
f 4/7/1 2/7/1 3/7/1
f 5/5/1 4/5/1 3/5/1
f 6/5/1 4/5/1 5/5/1
f 7/7/1 6/7/1 5/7/1
f 8/7/1 6/7/1 7/7/1
f 9/5/1 8/5/1 7/5/1
f 10/5/1 8/5/1 9/5/1
f 11/3/1 10/3/1 9/3/1
f 12/3/1 10/3/1 11/3/1
f 17/7/1 14/7/1 13/7/1
f 18/7/1 14/7/1 17/7/1
f 19/7/1 16/7/1 15/7/1
f 20/7/1 16/7/1 19/7/1
f 21/5/1 18/5/1 17/5/1
f 22/5/1 18/5/1 21/5/1
f 23/5/1 20/5/1 19/5/1
f 24/5/1 20/5/1 23/5/1
f 25/7/1 22/7/1 21/7/1
f 26/7/1 22/7/1 25/7/1
f 27/7/1 24/7/1 23/7/1
f 28/7/1 24/7/1 27/7/1
f 29/5/1 26/5/1 25/5/1
f 30/5/1 26/5/1 29/5/1
f 31/5/1 28/5/1 27/5/1
f 32/5/1 28/5/1 31/5/1
f 33/1/1 30/1/1 29/1/1
f 34/1/1 30/1/1 33/1/1
f 35/3/1 34/3/1 33/3/1
f 36/3/1 34/3/1 35/3/1
f 37/3/1 32/3/1 31/3/1
f 38/3/1 32/3/1 37/3/1
f 43/7/1 40/7/1 39/7/1
f 44/7/1 40/7/1 43/7/1
f 45/7/1 42/7/1 41/7/1
f 46/7/1 42/7/1 45/7/1
f 47/5/1 44/5/1 43/5/1
f 48/5/1 44/5/1 47/5/1
f 49/5/1 46/5/1 45/5/1
f 50/5/1 46/5/1 49/5/1
f 51/7/1 48/7/1 47/7/1
f 52/7/1 48/7/1 51/7/1
f 53/7/1 50/7/1 49/7/1
f 54/7/1 50/7/1 53/7/1
f 55/5/1 52/5/1 51/5/1
f 56/5/1 52/5/1 55/5/1
f 57/5/1 54/5/1 53/5/1
f 58/5/1 54/5/1 57/5/1
f 59/1/1 56/1/1 55/1/1
f 60/1/1 56/1/1 59/1/1
f 61/3/1 60/3/1 59/3/1
f 62/3/1 60/3/1 61/3/1
f 63/3/1 58/3/1 57/3/1
f 64/3/1 58/3/1 63/3/1
f 69/7/1 66/7/1 65/7/1
f 70/7/1 66/7/1 69/7/1
f 71/7/1 68/7/1 67/7/1
f 72/7/1 68/7/1 71/7/1
f 73/5/1 70/5/1 69/5/1
f 74/5/1 70/5/1 73/5/1
f 75/5/1 72/5/1 71/5/1
f 76/5/1 72/5/1 75/5/1
f 77/7/1 74/7/1 73/7/1
f 78/7/1 74/7/1 77/7/1
f 79/7/1 76/7/1 75/7/1
f 80/7/1 76/7/1 79/7/1
f 81/5/1 78/5/1 77/5/1
f 82/5/1 78/5/1 81/5/1
f 83/5/1 80/5/1 79/5/1
f 84/5/1 80/5/1 83/5/1
f 85/1/1 82/1/1 81/1/1
f 86/1/1 82/1/1 85/1/1
f 87/3/1 86/3/1 85/3/1
f 88/3/1 86/3/1 87/3/1
f 89/3/1 84/3/1 83/3/1
f 90/3/1 84/3/1 89/3/1
f 95/7/1 92/7/1 91/7/1
f 96/7/1 92/7/1 95/7/1
f 97/7/1 94/7/1 93/7/1
f 98/7/1 94/7/1 97/7/1
f 99/5/1 96/5/1 95/5/1
f 100/5/1 96/5/1 99/5/1
f 101/5/1 98/5/1 97/5/1
f 102/5/1 98/5/1 101/5/1
f 103/7/1 100/7/1 99/7/1
f 104/7/1 100/7/1 103/7/1
f 105/7/1 102/7/1 101/7/1
f 106/7/1 102/7/1 105/7/1
f 107/5/1 104/5/1 103/5/1
f 108/5/1 104/5/1 107/5/1
f 109/5/1 106/5/1 105/5/1
f 110/5/1 106/5/1 109/5/1
f 111/1/1 108/1/1 107/1/1
f 112/1/1 108/1/1 111/1/1
f 113/3/1 112/3/1 111/3/1
f 114/3/1 112/3/1 113/3/1
f 115/3/1 110/3/1 109/3/1
f 116/3/1 110/3/1 115/3/1
f 121/7/1 118/7/1 117/7/1
f 122/7/1 118/7/1 121/7/1
f 123/7/1 120/7/1 119/7/1
f 124/7/1 120/7/1 123/7/1
f 125/5/1 122/5/1 121/5/1
f 126/5/1 122/5/1 125/5/1
f 127/5/1 124/5/1 123/5/1
f 128/5/1 124/5/1 127/5/1
f 129/7/1 126/7/1 125/7/1
f 130/7/1 126/7/1 129/7/1
f 131/7/1 128/7/1 127/7/1
f 132/7/1 128/7/1 131/7/1
f 133/5/1 130/5/1 129/5/1
f 134/5/1 130/5/1 133/5/1
f 135/5/1 132/5/1 131/5/1
f 136/5/1 132/5/1 135/5/1
f 137/3/1 134/3/1 133/3/1
f 138/3/1 137/3/1 133/3/1
f 139/3/1 137/3/1 138/3/1
f 140/3/1 136/3/1 135/3/1
f 141/3/1 136/3/1 140/3/1
f 142/7/2 143/7/2 146/7/2
f 146/7/2 143/7/2 147/7/2
f 144/7/2 145/7/2 148/7/2
f 148/7/2 145/7/2 149/7/2
f 146/5/2 147/5/2 150/5/2
f 150/5/2 147/5/2 151/5/2
f 148/5/2 149/5/2 152/5/2
f 152/5/2 149/5/2 153/5/2
f 150/7/2 151/7/2 154/7/2
f 154/7/2 151/7/2 155/7/2
f 152/7/2 153/7/2 156/7/2
f 156/7/2 153/7/2 157/7/2
f 154/5/2 155/5/2 158/5/2
f 158/5/2 155/5/2 159/5/2
f 156/5/2 157/5/2 160/5/2
f 160/5/2 157/5/2 161/5/2
f 158/3/2 159/3/2 162/3/2
f 162/3/2 159/3/2 163/3/2
f 160/3/2 161/3/2 164/3/2
f 164/3/2 161/3/2 165/3/2
f 166/7/2 167/7/2 170/7/2
f 170/7/2 167/7/2 171/7/2
f 168/7/2 169/7/2 172/7/2
f 172/7/2 169/7/2 173/7/2
f 170/5/2 171/5/2 174/5/2
f 174/5/2 171/5/2 175/5/2
f 172/5/2 173/5/2 176/5/2
f 176/5/2 173/5/2 177/5/2
f 174/7/2 175/7/2 178/7/2
f 178/7/2 175/7/2 179/7/2
f 176/7/2 177/7/2 180/7/2
f 180/7/2 177/7/2 181/7/2
f 178/5/2 179/5/2 182/5/2
f 182/5/2 179/5/2 183/5/2
f 180/5/2 181/5/2 184/5/2
f 184/5/2 181/5/2 185/5/2
f 182/3/2 183/3/2 186/3/2
f 186/3/2 183/3/2 187/3/2
f 184/3/2 185/3/2 188/3/2
f 188/3/2 185/3/2 189/3/2
f 190/7/2 191/7/2 194/7/2
f 194/7/2 191/7/2 195/7/2
f 192/7/2 193/7/2 196/7/2
f 196/7/2 193/7/2 197/7/2
f 194/5/2 195/5/2 198/5/2
f 198/5/2 195/5/2 199/5/2
f 196/5/2 197/5/2 200/5/2
f 200/5/2 197/5/2 201/5/2
f 198/7/2 199/7/2 202/7/2
f 202/7/2 199/7/2 203/7/2
f 200/7/2 201/7/2 204/7/2
f 204/7/2 201/7/2 205/7/2
f 202/5/2 203/5/2 206/5/2
f 206/5/2 203/5/2 207/5/2
f 204/5/2 205/5/2 208/5/2
f 208/5/2 205/5/2 209/5/2
f 206/3/2 207/3/2 210/3/2
f 210/3/2 207/3/2 211/3/2
f 208/3/2 209/3/2 212/3/2
f 212/3/2 209/3/2 213/3/2
f 214/7/2 215/7/2 218/7/2
f 218/7/2 215/7/2 219/7/2
f 216/7/2 217/7/2 220/7/2
f 220/7/2 217/7/2 221/7/2
f 218/5/2 219/5/2 222/5/2
f 222/5/2 219/5/2 223/5/2
f 220/5/2 221/5/2 224/5/2
f 224/5/2 221/5/2 225/5/2
f 222/7/2 223/7/2 226/7/2
f 226/7/2 223/7/2 227/7/2
f 224/7/2 225/7/2 228/7/2
f 228/7/2 225/7/2 229/7/2
f 226/5/2 227/5/2 230/5/2
f 230/5/2 227/5/2 231/5/2
f 228/5/2 229/5/2 232/5/2
f 232/5/2 229/5/2 233/5/2
f 230/3/2 231/3/2 234/3/2
f 234/3/2 231/3/2 235/3/2
f 232/3/2 233/3/2 236/3/2
f 236/3/2 233/3/2 237/3/2
f 238/7/2 239/7/2 242/7/2
f 242/7/2 239/7/2 243/7/2
f 240/7/2 241/7/2 244/7/2
f 244/7/2 241/7/2 245/7/2
f 242/5/2 243/5/2 246/5/2
f 246/5/2 243/5/2 247/5/2
f 244/5/2 245/5/2 248/5/2
f 248/5/2 245/5/2 249/5/2
f 246/7/2 247/7/2 250/7/2
f 250/7/2 247/7/2 251/7/2
f 248/7/2 249/7/2 252/7/2
f 252/7/2 249/7/2 253/7/2
f 250/5/2 251/5/2 254/5/2
f 254/5/2 251/5/2 255/5/2
f 252/5/2 253/5/2 256/5/2
f 256/5/2 253/5/2 257/5/2
f 254/3/2 255/3/2 258/3/2
f 258/3/2 255/3/2 259/3/2
f 256/3/2 257/3/2 260/3/2
f 260/3/2 257/3/2 261/3/2
f 262/7/2 263/7/2 264/7/2
f 264/7/2 263/7/2 265/7/2
f 264/5/2 265/5/2 266/5/2
f 266/5/2 265/5/2 267/5/2
f 266/7/2 267/7/2 268/7/2
f 268/7/2 267/7/2 269/7/2
f 268/5/2 269/5/2 270/5/2
f 270/5/2 269/5/2 271/5/2
f 270/3/2 271/3/2 272/3/2
f 272/3/2 271/3/2 273/3/2
f 280/7/3 275/7/3 274/7/3
f 281/5/3 276/5/3 275/5/3
f 281/7/3 275/7/3 280/7/3
f 282/7/3 277/7/3 276/7/3
f 282/5/3 276/5/3 281/5/3
f 283/5/3 278/5/3 277/5/3
f 283/7/3 277/7/3 282/7/3
f 284/3/3 279/3/3 278/3/3
f 284/5/3 278/5/3 283/5/3
f 285/3/3 279/3/3 284/3/3
f 293/7/3 287/7/3 286/7/3
f 294/5/3 288/5/3 287/5/3
f 294/7/3 287/7/3 293/7/3
f 295/7/3 289/7/3 288/7/3
f 295/5/3 288/5/3 294/5/3
f 296/5/3 290/5/3 289/5/3
f 296/7/3 289/7/3 295/7/3
f 297/1/3 291/1/3 290/1/3
f 297/5/3 290/5/3 296/5/3
f 298/3/3 292/3/3 291/3/3
f 298/1/3 291/1/3 297/1/3
f 299/3/3 292/3/3 298/3/3
f 306/7/3 301/7/3 300/7/3
f 307/5/3 302/5/3 301/5/3
f 307/7/3 301/7/3 306/7/3
f 308/7/3 303/7/3 302/7/3
f 308/5/3 302/5/3 307/5/3
f 309/5/3 304/5/3 303/5/3
f 309/7/3 303/7/3 308/7/3
f 310/3/3 305/3/3 304/3/3
f 310/5/3 304/5/3 309/5/3
f 311/3/3 305/3/3 310/3/3
f 319/7/3 313/7/3 312/7/3
f 320/5/3 314/5/3 313/5/3
f 320/7/3 313/7/3 319/7/3
f 321/7/3 315/7/3 314/7/3
f 321/5/3 314/5/3 320/5/3
f 322/5/3 316/5/3 315/5/3
f 322/7/3 315/7/3 321/7/3
f 323/1/3 317/1/3 316/1/3
f 323/5/3 316/5/3 322/5/3
f 324/3/3 318/3/3 317/3/3
f 324/1/3 317/1/3 323/1/3
f 325/3/3 318/3/3 324/3/3
f 332/7/3 327/7/3 326/7/3
f 333/5/3 328/5/3 327/5/3
f 333/7/3 327/7/3 332/7/3
f 334/7/3 329/7/3 328/7/3
f 334/5/3 328/5/3 333/5/3
f 335/5/3 330/5/3 329/5/3
f 335/7/3 329/7/3 334/7/3
f 336/3/3 331/3/3 330/3/3
f 336/5/3 330/5/3 335/5/3
f 337/3/3 331/3/3 336/3/3
f 345/7/3 339/7/3 338/7/3
f 346/5/3 340/5/3 339/5/3
f 346/7/3 339/7/3 345/7/3
f 347/7/3 341/7/3 340/7/3
f 347/5/3 340/5/3 346/5/3
f 348/5/3 342/5/3 341/5/3
f 348/7/3 341/7/3 347/7/3
f 349/1/3 343/1/3 342/1/3
f 349/5/3 342/5/3 348/5/3
f 350/3/3 344/3/3 343/3/3
f 350/1/3 343/1/3 349/1/3
f 351/3/3 344/3/3 350/3/3
f 358/7/3 353/7/3 352/7/3
f 359/5/3 354/5/3 353/5/3
f 359/7/3 353/7/3 358/7/3
f 360/7/3 355/7/3 354/7/3
f 360/5/3 354/5/3 359/5/3
f 361/5/3 356/5/3 355/5/3
f 361/7/3 355/7/3 360/7/3
f 362/3/3 357/3/3 356/3/3
f 362/5/3 356/5/3 361/5/3
f 363/3/3 357/3/3 362/3/3
f 371/7/3 365/7/3 364/7/3
f 372/5/3 366/5/3 365/5/3
f 372/7/3 365/7/3 371/7/3
f 373/7/3 367/7/3 366/7/3
f 373/5/3 366/5/3 372/5/3
f 374/5/3 368/5/3 367/5/3
f 374/7/3 367/7/3 373/7/3
f 375/1/3 369/1/3 368/1/3
f 375/5/3 368/5/3 374/5/3
f 376/3/3 370/3/3 369/3/3
f 376/1/3 369/1/3 375/1/3
f 377/3/3 370/3/3 376/3/3
f 384/7/3 379/7/3 378/7/3
f 385/5/3 380/5/3 379/5/3
f 385/7/3 379/7/3 384/7/3
f 386/7/3 381/7/3 380/7/3
f 386/5/3 380/5/3 385/5/3
f 387/5/3 382/5/3 381/5/3
f 387/7/3 381/7/3 386/7/3
f 388/3/3 383/3/3 382/3/3
f 388/5/3 382/5/3 387/5/3
f 389/3/3 383/3/3 388/3/3
f 396/7/3 391/7/3 390/7/3
f 397/5/3 392/5/3 391/5/3
f 397/7/3 391/7/3 396/7/3
f 398/7/3 393/7/3 392/7/3
f 398/5/3 392/5/3 397/5/3
f 399/5/3 394/5/3 393/5/3
f 399/7/3 393/7/3 398/7/3
f 400/3/3 395/3/3 394/3/3
f 400/5/3 394/5/3 399/5/3
f 401/3/3 395/3/3 400/3/3
f 402/3/3 395/3/3 401/3/3
f 409/7/3 404/7/3 403/7/3
f 410/5/3 405/5/3 404/5/3
f 410/7/3 404/7/3 409/7/3
f 411/7/3 406/7/3 405/7/3
f 411/5/3 405/5/3 410/5/3
f 412/5/3 407/5/3 406/5/3
f 412/7/3 406/7/3 411/7/3
f 413/3/3 408/3/3 407/3/3
f 413/5/3 407/5/3 412/5/3
f 414/3/3 408/3/3 413/3/3
f 415/7/4 416/7/4 421/7/4
f 416/5/4 417/5/4 422/5/4
f 421/7/4 416/7/4 422/7/4
f 417/7/4 418/7/4 423/7/4
f 422/5/4 417/5/4 423/5/4
f 418/5/4 419/5/4 424/5/4
f 423/7/4 418/7/4 424/7/4
f 419/3/4 420/3/4 425/3/4
f 424/5/4 419/5/4 425/5/4
f 425/3/4 420/3/4 426/3/4
f 427/7/4 428/7/4 433/7/4
f 428/5/4 429/5/4 434/5/4
f 433/7/4 428/7/4 434/7/4
f 429/7/4 430/7/4 435/7/4
f 434/5/4 429/5/4 435/5/4
f 430/5/4 431/5/4 436/5/4
f 435/7/4 430/7/4 436/7/4
f 431/3/4 432/3/4 437/3/4
f 436/5/4 431/5/4 437/5/4
f 437/3/4 432/3/4 438/3/4
f 439/7/4 440/7/4 445/7/4
f 440/5/4 441/5/4 446/5/4
f 445/7/4 440/7/4 446/7/4
f 441/7/4 442/7/4 447/7/4
f 446/5/4 441/5/4 447/5/4
f 442/5/4 443/5/4 448/5/4
f 447/7/4 442/7/4 448/7/4
f 443/3/4 444/3/4 449/3/4
f 448/5/4 443/5/4 449/5/4
f 449/3/4 444/3/4 450/3/4
f 451/7/4 452/7/4 457/7/4
f 452/5/4 453/5/4 458/5/4
f 457/7/4 452/7/4 458/7/4
f 453/7/4 454/7/4 459/7/4
f 458/5/4 453/5/4 459/5/4
f 454/5/4 455/5/4 460/5/4
f 459/7/4 454/7/4 460/7/4
f 455/3/4 456/3/4 461/3/4
f 460/5/4 455/5/4 461/5/4
f 461/3/4 456/3/4 462/3/4
f 463/7/4 464/7/4 469/7/4
f 464/5/4 465/5/4 470/5/4
f 469/7/4 464/7/4 470/7/4
f 465/7/4 466/7/4 471/7/4
f 470/5/4 465/5/4 471/5/4
f 466/5/4 467/5/4 472/5/4
f 471/7/4 466/7/4 472/7/4
f 467/3/4 468/3/4 473/3/4
f 472/5/4 467/5/4 473/5/4
f 473/3/4 468/3/4 474/3/4
f 475/7/4 476/7/4 481/7/4
f 476/5/4 477/5/4 482/5/4
f 481/7/4 476/7/4 482/7/4
f 477/7/4 478/7/4 483/7/4
f 482/5/4 477/5/4 483/5/4
f 478/5/4 479/5/4 484/5/4
f 483/7/4 478/7/4 484/7/4
f 479/3/4 480/3/4 485/3/4
f 484/5/4 479/5/4 485/5/4
f 485/3/4 480/3/4 486/3/4
f 487/7/4 488/7/4 493/7/4
f 488/5/4 489/5/4 494/5/4
f 493/7/4 488/7/4 494/7/4
f 489/7/4 490/7/4 495/7/4
f 494/5/4 489/5/4 495/5/4
f 490/5/4 491/5/4 496/5/4
f 495/7/4 490/7/4 496/7/4
f 491/3/4 492/3/4 497/3/4
f 496/5/4 491/5/4 497/5/4
f 497/3/4 492/3/4 498/3/4
f 499/7/4 500/7/4 505/7/4
f 500/5/4 501/5/4 506/5/4
f 505/7/4 500/7/4 506/7/4
f 501/7/4 502/7/4 507/7/4
f 506/5/4 501/5/4 507/5/4
f 502/5/4 503/5/4 508/5/4
f 507/7/4 502/7/4 508/7/4
f 503/3/4 504/3/4 509/3/4
f 508/5/4 503/5/4 509/5/4
f 509/3/4 504/3/4 510/3/4
f 511/7/4 512/7/4 517/7/4
f 512/5/4 513/5/4 518/5/4
f 517/7/4 512/7/4 518/7/4
f 513/7/4 514/7/4 519/7/4
f 518/5/4 513/5/4 519/5/4
f 514/5/4 515/5/4 520/5/4
f 519/7/4 514/7/4 520/7/4
f 515/3/4 516/3/4 521/3/4
f 520/5/4 515/5/4 521/5/4
f 521/3/4 516/3/4 522/3/4
f 523/7/4 524/7/4 529/7/4
f 524/5/4 525/5/4 530/5/4
f 529/7/4 524/7/4 530/7/4
f 525/7/4 526/7/4 531/7/4
f 530/5/4 525/5/4 531/5/4
f 526/5/4 527/5/4 532/5/4
f 531/7/4 526/7/4 532/7/4
f 527/3/4 528/3/4 533/3/4
f 532/5/4 527/5/4 533/5/4
f 533/3/4 528/3/4 534/3/4
f 535/7/4 536/7/4 541/7/4
f 536/5/4 537/5/4 542/5/4
f 541/7/4 536/7/4 542/7/4
f 537/7/4 538/7/4 543/7/4
f 542/5/4 537/5/4 543/5/4
f 538/5/4 539/5/4 544/5/4
f 543/7/4 538/7/4 544/7/4
f 539/3/4 540/3/4 545/3/4
f 544/5/4 539/5/4 545/5/4
f 545/3/4 540/3/4 546/3/4
f 550/7/5 548/7/5 547/7/5
f 551/7/5 548/7/5 550/7/5
f 554/7/5 550/7/5 549/7/5
f 554/7/5 552/7/5 551/7/5
f 554/7/5 551/7/5 550/7/5
f 555/7/5 552/7/5 554/7/5
f 556/7/5 552/7/5 555/7/5
f 557/7/5 552/7/5 556/7/5
f 560/7/5 554/7/5 553/7/5
f 561/6/5 555/6/5 554/6/5
f 561/7/5 554/7/5 560/7/5
f 562/7/5 558/7/5 557/7/5
f 562/6/5 557/6/5 556/6/5
f 563/7/5 558/7/5 562/7/5
f 566/7/5 560/7/5 559/7/5
f 567/6/5 561/6/5 560/6/5
f 567/7/5 560/7/5 566/7/5
f 568/7/5 556/7/5 555/7/5
f 568/6/5 562/6/5 556/6/5
f 568/6/5 563/6/5 562/6/5
f 569/7/5 564/7/5 563/7/5
f 569/6/5 563/6/5 568/6/5
f 570/7/5 564/7/5 569/7/5
f 573/7/5 566/7/5 565/7/5
f 574/6/5 567/6/5 566/6/5
f 574/7/5 566/7/5 573/7/5
f 575/7/5 568/7/5 555/7/5
f 575/7/5 571/7/5 570/7/5
f 575/7/5 569/7/5 568/7/5
f 575/7/5 570/7/5 569/7/5
f 576/7/5 571/7/5 575/7/5
f 578/6/5 574/6/5 573/6/5
f 578/7/5 573/7/5 572/7/5
f 579/6/5 567/6/5 574/6/5
f 579/6/5 574/6/5 578/6/5
f 580/6/5 555/6/5 561/6/5
f 580/6/5 567/6/5 579/6/5
f 580/6/5 561/6/5 567/6/5
f 580/7/5 575/7/5 555/7/5
f 581/6/5 576/6/5 575/6/5
f 581/7/5 575/7/5 580/7/5
f 582/7/5 579/7/5 578/7/5
f 582/7/5 578/7/5 572/7/5
f 583/7/5 579/7/5 582/7/5
f 584/6/5 581/6/5 580/6/5
f 584/7/5 579/7/5 583/7/5
f 584/6/5 580/6/5 579/6/5
f 585/6/5 581/6/5 584/6/5
f 586/6/5 576/6/5 581/6/5
f 586/6/5 581/6/5 585/6/5
f 587/7/5 577/7/5 576/7/5
f 587/6/5 576/6/5 586/6/5
f 588/7/5 577/7/5 587/7/5
f 589/7/5 585/7/5 584/7/5
f 589/7/5 584/7/5 583/7/5
f 590/7/5 585/7/5 589/7/5
f 591/6/5 586/6/5 585/6/5
f 592/6/5 586/6/5 591/6/5
f 593/6/5 586/6/5 592/6/5
f 594/7/5 587/7/5 586/7/5
f 594/6/5 586/6/5 593/6/5
f 595/7/5 587/7/5 594/7/5
f 596/7/5 585/7/5 590/7/5
f 597/6/5 591/6/5 585/6/5
f 597/7/5 585/7/5 596/7/5
f 598/7/5 592/7/5 591/7/5
f 598/6/5 591/6/5 597/6/5
f 599/6/5 593/6/5 592/6/5
f 600/7/5 594/7/5 593/7/5
f 600/6/5 593/6/5 599/6/5
f 601/7/5 594/7/5 600/7/5
f 602/7/5 598/7/5 597/7/5
f 603/7/5 592/7/5 598/7/5
f 603/7/5 598/7/5 602/7/5
f 604/6/5 599/6/5 592/6/5
f 605/7/5 600/7/5 599/7/5
f 605/6/5 599/6/5 604/6/5
f 606/7/5 600/7/5 605/7/5
f 607/7/5 592/7/5 603/7/5
f 608/6/5 604/6/5 592/6/5
f 608/7/5 592/7/5 607/7/5
f 609/7/5 605/7/5 604/7/5
f 609/6/5 604/6/5 608/6/5
f 610/7/5 605/7/5 609/7/5
f 611/7/5 609/7/5 608/7/5
f 612/7/5 609/7/5 611/7/5
f 613/3/6 614/3/6 616/3/6
f 616/3/6 614/3/6 617/3/6
f 615/3/6 616/3/6 620/3/6
f 617/3/6 618/3/6 620/3/6
f 616/3/6 617/3/6 620/3/6
f 620/3/6 618/3/6 621/3/6
f 619/3/6 620/3/6 624/3/6
f 621/3/6 622/3/6 624/3/6
f 620/3/6 621/3/6 624/3/6
f 624/3/6 622/3/6 625/3/6
f 623/3/6 624/3/6 628/3/6
f 625/3/6 626/3/6 628/3/6
f 624/3/6 625/3/6 628/3/6
f 628/3/6 626/3/6 629/3/6
f 627/3/6 628/3/6 632/3/6
f 629/3/6 630/3/6 632/3/6
f 628/3/6 629/3/6 632/3/6
f 632/3/6 630/3/6 633/3/6
f 631/3/6 632/3/6 635/3/6
f 633/3/6 634/3/6 635/3/6
f 632/3/6 633/3/6 635/3/6
f 635/3/6 634/3/6 636/3/6
f 636/3/6 634/3/6 637/3/6
f 637/3/6 634/3/6 638/3/6
f 636/3/6 637/3/6 639/3/6
f 639/3/6 637/3/6 640/3/6
f 640/3/6 637/3/6 641/3/6
f 641/3/6 637/3/6 642/3/6
f 640/3/6 641/3/6 643/3/6
f 643/3/6 641/3/6 644/3/6
f 644/3/6 641/3/6 645/3/6
f 645/3/6 641/3/6 646/3/6
f 644/3/6 645/3/6 647/3/6
f 647/3/6 645/3/6 648/3/6
f 648/3/6 645/3/6 649/3/6
f 649/3/6 645/3/6 650/3/6
f 648/3/6 649/3/6 651/3/6
f 651/3/6 649/3/6 652/3/6
f 652/3/6 649/3/6 653/3/6
f 653/3/6 649/3/6 654/3/6
f 652/3/6 653/3/6 655/3/6
f 655/3/6 653/3/6 656/3/6
